<?xml version="1.0" encoding="UTF-8"?>
<!DOCTYPE svg PUBLIC "-//W3C//DTD SVG 1.1//EN" "http://www.w3.org/Graphics/SVG/1.1/DTD/svg11.dtd">
<!-- Creator: CorelDRAW X8 -->
<svg xmlns="http://www.w3.org/2000/svg" xml:space="preserve" width="215.9mm" height="279.4mm" version="1.1" style="shape-rendering:geometricPrecision; text-rendering:geometricPrecision; image-rendering:optimizeQuality; fill-rule:evenodd; clip-rule:evenodd"
viewBox="0 0 21590 27940"
 xmlns:xlink="http://www.w3.org/1999/xlink">
 <defs>
  <style type="text/css">
   <![CDATA[
    .fil0 {fill:none}
    .fil1 {fill:#0E402D}
    .fil2 {fill:#5A6650}
    .fil4 {fill:#9FCC2E}
    .fil3 {fill:#F4FAEB}
   ]]>
  </style>
 </defs>
 <g id="Capa_x0020_1">
  <metadata id="CorelCorpID_0Corel-Layer"/>
  <rect class="fil0" x="11994" y="14702" width="3478" height="3478" rx="249" ry="249"/>
  <g id="_1924077837952">
   <path class="fil1" d="M13735 17913c162,-320 503,-682 724,-1077 91,-163 242,-466 79,-683 -120,-161 -430,-252 -681,-217 -39,248 16,246 123,387 95,124 157,205 232,306 -111,-45 -301,-266 -392,-277 -7,124 -47,304 10,403 42,74 134,166 157,257 -52,-46 -139,-144 -205,-149l-47 605 -53 -604c-51,8 -169,123 -203,150 29,-90 116,-183 166,-268 48,-82 8,-278 1,-394 -47,9 -345,246 -392,289 31,-67 160,-220 226,-307 122,-162 170,-147 128,-398 -255,-36 -556,63 -672,206 -300,372 381,1153 625,1498 59,82 116,194 174,273z"/>
   <path class="fil2" d="M12135 15307l-5 176c107,3 375,-22 462,22 146,74 624,48 796,156 98,61 126,158 336,161 186,3 239,-69 334,-146 149,-121 673,-96 806,-164 85,-45 53,-28 218,-27 83,0 166,0 249,-2l5 -176c-138,-4 -356,33 -461,-21 -88,-46 -51,-26 -192,-39 -73,-7 -145,-16 -216,-27 -689,-106 -376,-245 -725,-251 -182,-3 -245,73 -334,147 -144,120 -677,95 -807,163 -44,23 7,23 -92,28l-374 0z"/>
   <path class="fil3" d="M13657 15090c-420,117 -242,719 162,612 394,-104 238,-724 -162,-612z"/>
   <path class="fil4" d="M13634 15159c-310,128 -127,599 193,480 300,-112 150,-622 -193,-480z"/>
  </g>
 </g>
</svg>
